<?xml version="1.0" encoding="utf-8"?>
<!-- Generator: Adobe Illustrator 22.1.0, SVG Export Plug-In . SVG Version: 6.00 Build 0)  -->
<svg version="1.1" id="Capa_1" xmlns="http://www.w3.org/2000/svg" xmlns:xlink="http://www.w3.org/1999/xlink" x="0px" y="0px"
	 viewBox="0 0 849 730" style="enable-background:new 0 0 849 730;" xml:space="preserve">
<style type="text/css">
	.st0{fill:url(#SVGID_1_);}
	.st1{fill:url(#SVGID_2_);}
	.st2{fill:url(#SVGID_3_);}
	.st3{fill:url(#SVGID_4_);}
	.st4{fill:url(#SVGID_5_);}
	.st5{fill:url(#SVGID_6_);}
	.st6{fill:url(#SVGID_7_);}
	.st7{fill:url(#SVGID_8_);}
	.st8{fill:url(#SVGID_9_);}
	.st9{fill:url(#SVGID_10_);}
	.st10{fill:url(#SVGID_11_);}
	.st11{fill:url(#SVGID_12_);}
	.st12{fill:url(#SVGID_13_);}
	.st13{fill:url(#SVGID_14_);}
	.st14{fill:url(#SVGID_15_);}
</style>
<linearGradient id="SVGID_1_" gradientUnits="userSpaceOnUse" x1="282.5919" y1="285.2899" x2="879.6478" y2="285.2899">
	<stop  offset="0" style="stop-color:#0093F5"/>
	<stop  offset="1" style="stop-color:#350EF5"/>
</linearGradient>
<path class="st0" d="M867.6,300.8H294.6c-6.6,0-12-5.4-12-12v-7.1c0-6.6,5.4-12,12-12h573.1c6.6,0,12,5.4,12,12v7.1
	C879.6,295.4,874.2,300.8,867.6,300.8z"/>
<linearGradient id="SVGID_2_" gradientUnits="userSpaceOnUse" x1="368.7072" y1="306.6774" x2="965.7631" y2="306.6774">
	<stop  offset="0" style="stop-color:#0093F5"/>
	<stop  offset="1" style="stop-color:#350EF5"/>
</linearGradient>
<path class="st1" d="M953.8,322.2H380.7c-6.6,0-12-5.4-12-12v-7.1c0-6.6,5.4-12,12-12h573.1c6.6,0,12,5.4,12,12v7.1
	C965.8,316.8,960.4,322.2,953.8,322.2z"/>
<linearGradient id="SVGID_3_" gradientUnits="userSpaceOnUse" x1="325.6496" y1="336.2351" x2="922.7054" y2="336.2351">
	<stop  offset="0" style="stop-color:#0093F5"/>
	<stop  offset="1" style="stop-color:#350EF5"/>
</linearGradient>
<path class="st2" d="M910.7,351.8H337.6c-6.6,0-12-5.4-12-12v-7.1c0-6.6,5.4-12,12-12h573.1c6.6,0,12,5.4,12,12v7.1
	C922.7,346.4,917.3,351.8,910.7,351.8z"/>
<linearGradient id="SVGID_4_" gradientUnits="userSpaceOnUse" x1="411.7649" y1="357.6227" x2="1008.8207" y2="357.6227">
	<stop  offset="0" style="stop-color:#0093F5"/>
	<stop  offset="1" style="stop-color:#350EF5"/>
</linearGradient>
<path class="st3" d="M996.8,373.2H423.8c-6.6,0-12-5.4-12-12v-7.1c0-6.6,5.4-12,12-12h573.1c6.6,0,12,5.4,12,12v7.1
	C1008.8,367.8,1003.4,373.2,996.8,373.2z"/>
<linearGradient id="SVGID_5_" gradientUnits="userSpaceOnUse" x1="347.8833" y1="248.3479" x2="944.9392" y2="248.3479">
	<stop  offset="0" style="stop-color:#0093F5"/>
	<stop  offset="1" style="stop-color:#350EF5"/>
</linearGradient>
<path class="st4" d="M932.9,263.9H359.9c-6.6,0-12-5.4-12-12v-7.1c0-6.6,5.4-12,12-12h573.1c6.6,0,12,5.4,12,12v7.1
	C944.9,258.5,939.5,263.9,932.9,263.9z"/>
<linearGradient id="SVGID_6_" gradientUnits="userSpaceOnUse" x1="433.9986" y1="269.7354" x2="1031.0546" y2="269.7354">
	<stop  offset="0" style="stop-color:#0093F5"/>
	<stop  offset="1" style="stop-color:#350EF5"/>
</linearGradient>
<path class="st5" d="M1019.1,285.3H446c-6.6,0-12-5.4-12-12v-7.1c0-6.6,5.4-12,12-12h573.1c6.6,0,12,5.4,12,12v7.1
	C1031.1,279.9,1025.7,285.3,1019.1,285.3z"/>
<linearGradient id="SVGID_7_" gradientUnits="userSpaceOnUse" x1="304.8257" y1="381.8177" x2="901.8816" y2="381.8177">
	<stop  offset="0" style="stop-color:#0093F5"/>
	<stop  offset="1" style="stop-color:#350EF5"/>
</linearGradient>
<path class="st6" d="M889.9,397.4H316.8c-6.6,0-12-5.4-12-12v-7.1c0-6.6,5.4-12,12-12h573.1c6.6,0,12,5.4,12,12v7.1
	C901.9,392,896.5,397.4,889.9,397.4z"/>
<linearGradient id="SVGID_8_" gradientUnits="userSpaceOnUse" x1="390.941" y1="403.2052" x2="987.9969" y2="403.2052">
	<stop  offset="0" style="stop-color:#0093F5"/>
	<stop  offset="1" style="stop-color:#350EF5"/>
</linearGradient>
<path class="st7" d="M976,418.8H402.9c-6.6,0-12-5.4-12-12v-7.1c0-6.6,5.4-12,12-12H976c6.6,0,12,5.4,12,12v7.1
	C988,413.4,982.6,418.8,976,418.8z"/>
<linearGradient id="SVGID_9_" gradientUnits="userSpaceOnUse" x1="433.9986" y1="223.2408" x2="1031.0546" y2="223.2408">
	<stop  offset="0" style="stop-color:#0093F5"/>
	<stop  offset="1" style="stop-color:#350EF5"/>
</linearGradient>
<path class="st8" d="M1019.1,238.8H446c-6.6,0-12-5.4-12-12v-7.1c0-6.6,5.4-12,12-12h573.1c6.6,0,12,5.4,12,12v7.1
	C1031.1,233.4,1025.7,238.8,1019.1,238.8z"/>
<linearGradient id="SVGID_10_" gradientUnits="userSpaceOnUse" x1="469.9361" y1="186.2988" x2="986.1147" y2="186.2988">
	<stop  offset="0" style="stop-color:#0093F5"/>
	<stop  offset="1" style="stop-color:#350EF5"/>
</linearGradient>
<path class="st9" d="M974.1,201.9H481.9c-6.6,0-12-5.4-12-12v-7.1c0-6.6,5.4-12,12-12h492.2c6.6,0,12,5.4,12,12v7.1
	C986.1,196.5,980.7,201.9,974.1,201.9z"/>
<linearGradient id="SVGID_11_" gradientUnits="userSpaceOnUse" x1="544.3862" y1="207.6863" x2="1060.5648" y2="207.6863">
	<stop  offset="0" style="stop-color:#0093F5"/>
	<stop  offset="1" style="stop-color:#350EF5"/>
</linearGradient>
<path class="st10" d="M1048.6,223.2H556.4c-6.6,0-12-5.4-12-12v-7.1c0-6.6,5.4-12,12-12h492.2c6.6,0,12,5.4,12,12v7.1
	C1060.6,217.8,1055.2,223.2,1048.6,223.2z"/>
<linearGradient id="SVGID_12_" gradientUnits="userSpaceOnUse" x1="505.9422" y1="418.7597" x2="1022.1208" y2="418.7597">
	<stop  offset="0" style="stop-color:#0093F5"/>
	<stop  offset="1" style="stop-color:#350EF5"/>
</linearGradient>
<path class="st11" d="M1010.1,434.3H517.9c-6.6,0-12-5.4-12-12v-7.1c0-6.6,5.4-12,12-12h492.2c6.6,0,12,5.4,12,12v7.1
	C1022.1,428.9,1016.7,434.3,1010.1,434.3z"/>
<linearGradient id="SVGID_13_" gradientUnits="userSpaceOnUse" x1="413.489" y1="442.9547" x2="929.6677" y2="442.9547">
	<stop  offset="0" style="stop-color:#0093F5"/>
	<stop  offset="1" style="stop-color:#350EF5"/>
</linearGradient>
<path class="st12" d="M917.7,458.5H425.5c-6.6,0-12-5.4-12-12v-7.1c0-6.6,5.4-12,12-12h492.2c6.6,0,12,5.4,12,12v7.1
	C929.7,453.1,924.3,458.5,917.7,458.5z"/>
<linearGradient id="SVGID_14_" gradientUnits="userSpaceOnUse" x1="487.9391" y1="464.3422" x2="1004.1177" y2="464.3422">
	<stop  offset="0" style="stop-color:#0093F5"/>
	<stop  offset="1" style="stop-color:#350EF5"/>
</linearGradient>
<path class="st13" d="M992.1,479.9H499.9c-6.6,0-12-5.4-12-12v-7.1c0-6.6,5.4-12,12-12h492.2c6.6,0,12,5.4,12,12v7.1
	C1004.1,474.5,998.7,479.9,992.1,479.9z"/>
<linearGradient id="SVGID_15_" gradientUnits="userSpaceOnUse" x1="588.7001" y1="492.0045" x2="1104.8787" y2="492.0045">
	<stop  offset="0" style="stop-color:#0093F5"/>
	<stop  offset="1" style="stop-color:#350EF5"/>
</linearGradient>
<path class="st14" d="M1092.9,507.6H600.7c-6.6,0-12-5.4-12-12v-7.1c0-6.6,5.4-12,12-12h492.2c6.6,0,12,5.4,12,12v7.1
	C1104.9,502.2,1099.5,507.6,1092.9,507.6z"/>
</svg>
