<svg id="Capa_1" data-name="Capa 1" xmlns="http://www.w3.org/2000/svg" xmlns:xlink="http://www.w3.org/1999/xlink" viewBox="0 0 213.4 120.83"><defs><style>.cls-1{fill:url(#Degradado_sin_nombre_8);}</style><linearGradient id="Degradado_sin_nombre_8" x1="48.39" y1="275.38" x2="261.79" y2="275.38" gradientUnits="userSpaceOnUse"><stop offset="0" stop-color="#0071bc"/><stop offset="0.28" stop-color="#2d5bae"/><stop offset="0.77" stop-color="#763698"/><stop offset="0.99" stop-color="#93278f"/></linearGradient></defs><title>COLUMNAS.</title><path class="cls-1" d="M57.88,334.25h0a16.43,16.43,0,0,1-7.95-21.83l40.58-87a16.43,16.43,0,0,1,21.83-7.95h0a16.43,16.43,0,0,1,7.95,21.83l-40.58,87A16.43,16.43,0,0,1,57.88,334.25Zm68.18-8.39,40.67-87.22a16.43,16.43,0,0,0-7.95-21.83h0A16.43,16.43,0,0,0,137,224.76L96.28,312a16.43,16.43,0,0,0,7.95,21.83h0A16.43,16.43,0,0,0,126.07,325.87Zm47.09.12,40.58-87a16.43,16.43,0,0,0-7.95-21.83h0a16.43,16.43,0,0,0-21.83,7.95l-40.58,87a16.43,16.43,0,0,0,7.95,21.83h0A16.43,16.43,0,0,0,173.15,326Zm46.28-.13,40.81-87.51a16.43,16.43,0,0,0-7.95-21.83h0a16.43,16.43,0,0,0-21.83,7.95L189.65,312a16.43,16.43,0,0,0,7.95,21.83h0A16.43,16.43,0,0,0,219.44,325.85Z" transform="translate(-48.39 -214.96)"/></svg>