<?xml version="1.0" encoding="utf-8"?>
<!-- Generator: Adobe Illustrator 22.1.0, SVG Export Plug-In . SVG Version: 6.00 Build 0)  -->
<svg version="1.1" id="Capa_1" xmlns="http://www.w3.org/2000/svg" xmlns:xlink="http://www.w3.org/1999/xlink" x="0px" y="0px"
	 viewBox="0 0 213.4 120.8" style="enable-background:new 0 0 213.4 120.8;" xml:space="preserve">
<style type="text/css">
	.st0{fill:url(#SVGID_1_);}
</style>
<title>COLUMNAS.</title>
<linearGradient id="SVGID_1_" gradientUnits="userSpaceOnUse" x1="48.3889" y1="-155.38" x2="261.7811" y2="-155.38" gradientTransform="matrix(1 0 0 -1 -48.39 -94.96)">
	<stop  offset="0" style="stop-color:#1F2AFF"/>
	<stop  offset="0.99" style="stop-color:#A51FFF"/>
</linearGradient>
<path class="st0" d="M9.5,119.3L9.5,119.3c-8.2-3.8-11.8-13.6-8-21.8l40.6-87C46,2.2,55.7-1.3,64,2.5l0,0
	c8.2,3.8,11.8,13.6,7.9,21.8l-40.6,87C27.5,119.6,17.7,123.1,9.5,119.3z M77.7,110.9l40.7-87.2c3.8-8.2,0.3-18-7.9-21.8l0,0
	c-8.2-3.8-17.9-0.2-21.8,8L47.9,97c-3.8,8.2-0.3,18,7.9,21.8l0,0C64.1,122.7,73.8,119.1,77.7,110.9
	C77.7,110.9,77.7,110.9,77.7,110.9L77.7,110.9z M124.8,111l40.6-87c3.8-8.2,0.3-18-7.9-21.8l0,0c-8.2-3.8-18-0.3-21.8,7.9L95,97.1
	c-3.8,8.2-0.3,18,7.9,21.8l0,0C111.1,122.8,120.9,119.3,124.8,111L124.8,111z M171,110.9l40.8-87.5c3.8-8.2,0.3-18-7.9-21.8l0,0
	c-8.2-3.8-18-0.3-21.8,7.9L141.3,97c-3.8,8.2-0.3,18,7.9,21.8l0,0C157.4,122.7,167.2,119.1,171,110.9C171,110.9,171,110.9,171,110.9
	L171,110.9z"/>
</svg>
