<svg version="1" xmlns="http://www.w3.org/2000/svg" width="346.667" height="346.667" viewBox="0 0 260.000000 260.000000"><path d="M0 130v130h260V0H0v130zm226-55.1c4.4 3.2 7 8 7 13 0 3.9-3.2 11.5-21 49.5-12 25.9-22.1 46.1-23.7 47.8-6.9 7.2-20.1 4.9-24.8-4.2-3.4-6.6-2.8-8.6 19.6-56.5 13.5-29 22.1-46.3 23.9-48 1.5-1.4 4-3 5.6-3.5 3.9-1.2 10.4-.3 13.4 1.9zm-137.1.8c4.5 3.4 7.1 8.2 7.1 13.1 0 3.8-3.4 11.8-21.2 50-24.1 51.6-23.5 50.7-33.9 50.7-8.7 0-14.7-5.3-15.6-13.9-.5-4.3.7-7.1 20.6-49.9 21-45 23.4-49.3 29.1-51.6 3.6-1.5 10.8-.7 13.9 1.6zm45.1-.8c4.7 2.5 8.3 9.3 7.7 14.6-.6 5.3-40.6 91-44.4 95.1-5.7 6.4-16 6.5-22.2.3-3.4-3.4-5.6-9.9-4.6-13.8.8-3.1 39.8-87.2 42.6-91.7 3.7-6.1 13.9-8.3 20.9-4.5zm46.8.8c4.9 3.7 6.7 7.1 6.7 12.6-.1 4.6-2.4 10.1-20.9 49.7-11.4 24.5-21.5 45.4-22.5 46.4-2.8 3.3-9.9 5.9-14 5.1-8.3-1.6-13.3-7.3-13.4-15.3 0-4 2.9-10.9 20.8-49.2 11.4-24.5 21.7-45.6 22.9-46.9 1.1-1.3 3.5-3 5.1-3.7 4-1.9 11.9-1.2 15.3 1.3z"/></svg>