<svg version="1" xmlns="http://www.w3.org/2000/svg" width="1954.667" height="1954.667" viewBox="0 0 1466.000000 1466.000000"><path d="M713.5 1.2c-25.3 2.8-52.2 13.4-74 29.1-4.4 3.2-98.7 96.6-255.8 253.6C187.8 479.6 133.2 534.7 127 542.8c-13.5 17.9-23.5 40.1-28.1 62.6-4.7 23.1-3.3 53.3 3.7 74.7 1.4 4.3 1.3 5.4-.8 15-1.9 8.8-2.2 13.4-2.2 30.4 0 21.4 1.5 31.9 6.8 47.9l2.3 6.8-2.3 7.3c-5.4 16.9-7.5 40.5-5.4 59.6 2.1 19.3 6.9 35.5 15.8 53.4 10.9 22-4.6 5.9 269.6 280.1 236.7 236.7 253.8 253.6 263.2 259.8 18.5 12.1 38.5 19.9 60.8 23.8 10.3 1.7 14.8 1.9 29.6 1.5 25.7-.8 43.5-5.3 65.1-16.3 22.9-11.7 8.6 2 275.7-264.8 136-135.9 250.2-250.5 253.6-254.6 16.3-19.4 27-41.2 32.8-67.1 2-9.1 2.3-13 2.3-31.9 0-23-.9-29.4-6.2-46.4l-2.5-7.8 2.6-9.2c3.7-13 5.6-27.2 5.6-41.8 0-15-1.2-24.3-5-39.4l-2.8-11.1 2-8.9c1.3-6 2.1-14.5 2.5-26.4.5-15 .2-19.3-1.6-29.9-3.8-22.2-11.5-41.5-24.2-60.8-6.9-10.3-18.1-21.8-259.8-263.4C851 56.7 826.6 32.7 818 27 785.9 5.9 750.2-3 713.5 1.2zm-37.8 293.9c41.7 5.6 78.7 28.3 109.5 66.9 33.4 42 44.3 81.3 30.1 109.5-4.1 8.1-18.2 21.3-28 26.2-10 5-19.6 6.9-27.6 5.4-15.3-2.8-24.2-12.1-42.2-43.6-10.9-19.2-16.1-26.3-27.4-37.5-15.9-15.8-29.1-22-46.9-22-18.6 0-37.7 8.9-59.2 27.5-41.4 35.9-65.1 99.7-60.1 161.8 4.8 57.9 24.5 111.4 61.4 166.6 15.2 22.9 40.7 54.2 54.8 67.7 24.8 23.6 52.3 40.9 78.9 49.8 30.2 10 63.6 11.3 94.1 3.6 60.8-15.4 128.5-66.6 180.7-136.4 20.2-27.1 42.1-61.9 62.1-99 11.7-21.7 14.4-25.8 19.9-30.8 11-9.9 24.5-8.7 37.8 3.5 15.2 13.9 23.4 32.4 23.4 52.9 0 18.5-4.4 32.4-18.3 58.3C1073.4 809.7 1003 888 927 938.7c-38.4 25.6-81 44-121 52.3-26.1 5.4-56.6 7.3-80.6 5.1-69.7-6.4-133.9-41-185.4-99.8-43.1-49.1-77.7-107-97.9-163.2-9.4-26-17.7-61-21.7-90.1-2.5-19-3-62.4-1-82 9.7-91 52.1-166.8 124.8-223.2 30.6-23.8 65-39.3 95.3-43.1 6.7-.9 28.9-.6 36.2.4z"/></svg>