<svg version="1" xmlns="http://www.w3.org/2000/svg" width="1693.333" height="1693.333" viewBox="0 0 1270.000000 1270.000000"><path d="M559 250.1c-40.9 5.2-83.9 28.8-124.8 68.4-55.8 54-86.7 117.9-96.4 199-1.8 15.4-1.5 57.1.6 75 10.5 90.4 48.2 174.2 113.9 252.5 11.7 13.9 34.1 36.5 46.1 46.4 39.7 32.8 86.9 53.6 137.6 60.8 15.5 2.1 53.4 1.6 70.5-1 70.6-10.9 136.3-44.8 202.5-104.7 24.3-21.9 55.8-56.1 77.6-84.2 28.7-36.9 60-90.2 67-113.8 3.5-11.9 4.4-29.9 2-40.7-5.6-25-27.1-48.2-44.6-48.2-11.7 0-19.9 7.4-31.1 28.4-29.5 54.9-57.6 98.2-84.8 130.5-10.7 12.8-35.7 38-48.6 49.2-57.9 50.1-115.4 73.9-167.6 69.3-23.4-2-41-6.9-62.4-17.4-34.7-17.1-63.1-42.7-96.5-87.1-46.8-62.3-71.3-123-76-188.7-2.7-36.6 4.2-73.7 19.6-105.8 6.1-12.7 9.2-17.9 17.2-28.9 16.3-22.3 43.7-43.8 63.2-49.5 34.1-10.1 63.2 6.4 88.8 50.4 14.9 25.6 19 31.8 25.2 38.1 7.3 7.4 13.4 10.7 21.5 11.8 20.5 2.8 45.9-12.6 56.7-34.4 10.1-20.2 5.3-50.8-12.8-81.6-12.1-20.8-37.9-50.1-55.4-63-33-24.4-72.2-35.5-109-30.8z"/></svg>