<svg version="1" xmlns="http://www.w3.org/2000/svg" width="284" height="284" viewBox="0 0 213.000000 213.000000"><path d="M98.9 47C92 48.9 90.3 51.5 76 82.5c-3.4 7.3-7.7 16.6-13.4 28.7-1.9 4-5.5 11.8-8.1 17.3-2.5 5.5-5.4 11.6-6.3 13.5-6.3 13.3 4.9 27.7 18.7 24 7.4-2 8.5-3.5 19.4-27 1.4-3 9.4-20.1 17.8-38 13.9-29.5 15.3-33 15.4-38.1 0-9-5.6-15.5-14.1-16.2-2.2-.2-5.1-.1-6.5.3zM188.2 48.7c-2.3 1.5-4.9 4.4-6 6.7-3.3 6.6-12.7 26.7-21.7 46.1-4.5 9.9-10.6 22.9-13.5 29-5.2 10.9-8 17.8-7.8 19.3.3 3 3 9.7 4.5 11.4 6.6 7.3 18.4 7.2 24.4-.1 1.7-2 5.7-9.5 9-16.6 9.9-21.2 15.1-32.6 22.4-48C212.3 69.2 213 67.4 213 62.3c0-9-6.4-15.6-15.4-16-4.4-.1-6.2.4-9.4 2.4zM49.5 49c-4.7 2.3-6 4.3-13.3 20-2.9 6.3-6.8 14.6-8.7 18.5-1.8 3.8-4.7 9.9-6.3 13.5-1.6 3.6-5.1 11-7.7 16.5C.7 144.7-.2 147.2.3 152.3c.4 5.1 2.6 8.8 7.1 12.1 2.1 1.6 4.2 2.1 9 2.1 5.3 0 6.8-.4 9.8-2.7 1.9-1.5 4.3-4.4 5.3-6.5 1-2.1 4.7-9.8 8.2-17.2 3.4-7.3 6.3-13.5 6.3-13.6 0-.2 2.9-6.5 6.5-14 3.6-7.4 6.5-13.7 6.5-13.9 0-.2 3.2-7 7.1-15.2 8.2-17.1 8.8-20.6 5.1-27.6-4.3-8.1-13.4-10.9-21.7-6.8zM142.5 48.9c-4.9 3-5.8 4.5-16.8 28.1-5.8 12.4-12.8 27.4-15.6 33.3-2.8 6-5.1 11-5.1 11.2 0 .2-2.5 5.6-5.6 12.1-7.6 16.1-7.8 20.8-1 28.2 5.8 6.2 15.6 6.6 22 .9 3.4-3.1 6.3-8.7 22.8-44.7 1.4-3 4.6-9.8 7.1-15 2.4-5.2 5.6-12 7-15 1.3-3 4.1-9.1 6.2-13.4 3.1-6.7 3.6-8.7 3.2-12.9-.5-5.4-2.8-9.1-7.7-12.5-4.2-2.8-12.2-3-16.5-.3z"/></svg>